<svg width="149.237" height="24.486" viewBox="0 0 149.237 24.486" xmlns="http://www.w3.org/2000/svg">
  <g id="svgGroup" stroke-linecap="round" fill-rule="evenodd" font-size="9pt" stroke="#fff" stroke-width="0.25mm"
     fill="#fff" style="stroke:#fff;stroke-width:0.25mm;fill:#fff">
    <path
      d="M 34.526 19.372 L 34.526 1.19 L 39.968 1.19 L 44.585 12.447 L 44.798 12.447 L 49.414 1.19 L 54.856 1.19 L 54.856 19.372 L 50.577 19.372 L 50.577 8.204 L 50.426 8.204 L 46.058 19.256 L 43.324 19.256 L 38.956 8.141 L 38.805 8.141 L 38.805 19.372 L 34.526 19.372 Z M 11.088 1.19 L 15.474 1.19 L 15.474 19.372 L 11.745 19.372 L 4.51 8.878 L 4.395 8.878 L 4.395 19.372 L 0 19.372 L 0 1.19 L 3.782 1.19 L 10.938 11.666 L 11.088 11.666 L 11.088 1.19 Z M 22.621 19.372 L 18.226 19.372 L 18.226 1.19 L 25.737 1.19 Q 27.779 1.19 29.266 1.985 A 5.64 5.64 0 0 1 31.561 4.195 A 6.116 6.116 0 0 1 32.297 6.413 A 7.835 7.835 0 0 1 32.369 7.484 A 7.297 7.297 0 0 1 32.176 9.196 A 5.807 5.807 0 0 1 31.547 10.774 Q 30.726 12.181 29.208 12.953 A 6.884 6.884 0 0 1 27.32 13.578 A 9.491 9.491 0 0 1 25.604 13.726 L 20.969 13.726 L 20.969 10.263 L 24.787 10.263 Q 25.625 10.263 26.233 10.017 A 2.606 2.606 0 0 0 26.452 9.917 A 2.441 2.441 0 0 0 27.22 9.309 A 2.34 2.34 0 0 0 27.468 8.945 A 2.747 2.747 0 0 0 27.777 8.01 A 3.578 3.578 0 0 0 27.814 7.484 A 3.461 3.461 0 0 0 27.743 6.767 A 2.614 2.614 0 0 0 27.468 6.024 Q 27.122 5.407 26.447 5.07 A 3.011 3.011 0 0 0 25.708 4.819 Q 25.287 4.732 24.787 4.732 L 22.621 4.732 L 22.621 19.372 Z M 136 24.051 L 136.958 20.899 Q 137.598 21.112 138.117 21.147 Q 138.415 21.168 138.667 21.111 A 1.403 1.403 0 0 0 139.014 20.983 A 1.119 1.119 0 0 0 139.392 20.65 Q 139.509 20.491 139.595 20.277 L 139.764 19.869 L 134.917 5.736 L 139.462 5.736 L 141.974 15.466 L 142.116 15.466 L 144.664 5.736 L 149.237 5.736 L 144.096 20.677 Q 143.723 21.796 143.044 22.652 A 4.596 4.596 0 0 1 141.5 23.898 A 5.426 5.426 0 0 1 141.295 23.997 A 5.044 5.044 0 0 1 140.184 24.348 Q 139.493 24.486 138.663 24.486 A 9.083 9.083 0 0 1 137.631 24.429 A 7.761 7.761 0 0 1 137.189 24.366 Q 136.583 24.261 136.127 24.098 A 4.252 4.252 0 0 1 136 24.051 Z M 88.61 19.372 L 84.313 19.372 L 84.313 1.19 L 88.654 1.19 L 88.654 8.07 L 88.743 8.07 A 4.474 4.474 0 0 1 89.239 7.205 A 5.385 5.385 0 0 1 89.502 6.872 Q 89.995 6.295 90.763 5.926 A 3.59 3.59 0 0 1 91.661 5.64 Q 92.099 5.558 92.605 5.558 A 5.066 5.066 0 0 1 95.264 6.304 A 4.827 4.827 0 0 1 96.656 7.591 A 6.575 6.575 0 0 1 97.266 8.603 A 6.793 6.793 0 0 1 97.788 10.126 Q 97.952 10.862 98.004 11.723 A 13.775 13.775 0 0 1 98.029 12.563 A 12.211 12.211 0 0 1 97.926 14.194 Q 97.808 15.068 97.555 15.803 A 6.479 6.479 0 0 1 97.297 16.442 A 6.301 6.301 0 0 1 96.529 17.698 A 4.822 4.822 0 0 1 95.326 18.786 A 5.045 5.045 0 0 1 92.578 19.567 A 5.298 5.298 0 0 1 91.73 19.503 Q 91.218 19.42 90.794 19.23 Q 90.039 18.893 89.529 18.342 A 4.388 4.388 0 0 1 88.927 17.529 A 3.893 3.893 0 0 1 88.743 17.161 L 88.61 17.161 L 88.61 19.372 Z M 118.501 10.103 L 118.501 10.059 Q 118.501 9.375 118.031 9.003 A 1.622 1.622 0 0 0 117.448 8.714 Q 117.219 8.651 116.947 8.635 A 3.183 3.183 0 0 0 116.761 8.63 Q 115.9 8.63 115.376 9.003 Q 114.853 9.375 114.711 10.032 L 110.707 9.89 A 4.739 4.739 0 0 1 111.626 7.666 A 4.638 4.638 0 0 1 112.909 6.515 A 5.955 5.955 0 0 1 113.667 6.122 Q 114.866 5.602 116.512 5.561 A 11.468 11.468 0 0 1 116.797 5.558 A 9.729 9.729 0 0 1 118.275 5.666 A 7.981 7.981 0 0 1 119.203 5.864 A 6.641 6.641 0 0 1 120.381 6.31 A 5.467 5.467 0 0 1 121.12 6.752 A 4.095 4.095 0 0 1 122.385 8.177 A 3.834 3.834 0 0 1 122.802 9.545 A 4.811 4.811 0 0 1 122.834 10.103 L 122.834 19.372 L 118.75 19.372 L 118.75 17.472 L 118.643 17.472 Q 118.279 18.165 117.716 18.644 A 3.716 3.716 0 0 1 116.557 19.308 A 4.31 4.31 0 0 1 116.393 19.363 A 5.065 5.065 0 0 1 115.451 19.56 A 6.645 6.645 0 0 1 114.684 19.603 A 6.604 6.604 0 0 1 113.471 19.496 A 5.069 5.069 0 0 1 112.371 19.163 A 3.54 3.54 0 0 1 110.782 17.832 A 3.439 3.439 0 0 1 110.316 16.701 Q 110.215 16.255 110.202 15.739 A 6.088 6.088 0 0 1 110.201 15.59 A 5.37 5.37 0 0 1 110.265 14.733 Q 110.34 14.269 110.503 13.883 A 3.074 3.074 0 0 1 110.6 13.672 A 3.414 3.414 0 0 1 111.701 12.403 Q 112.402 11.915 113.317 11.662 A 10.371 10.371 0 0 1 114.758 11.374 A 11.998 11.998 0 0 1 115.27 11.32 Q 116.31 11.224 116.988 11.118 A 12.909 12.909 0 0 0 117.143 11.093 A 4.919 4.919 0 0 0 117.512 11.017 Q 117.872 10.928 118.094 10.8 A 1.139 1.139 0 0 0 118.177 10.747 Q 118.501 10.521 118.501 10.103 Z M 74.947 19.372 L 62.988 19.372 L 62.988 1.19 L 67.383 1.19 L 67.383 15.803 L 74.947 15.803 L 74.947 19.372 Z M 104.652 19.372 L 100.311 19.372 L 100.311 5.736 L 104.528 5.736 L 104.528 8.221 L 104.67 8.221 A 5.03 5.03 0 0 1 104.999 7.34 Q 105.346 6.634 105.886 6.211 Q 106.729 5.549 107.848 5.549 A 4.949 4.949 0 0 1 108.39 5.58 A 5.468 5.468 0 0 1 108.469 5.589 A 4.083 4.083 0 0 1 108.87 5.659 A 3.429 3.429 0 0 1 109.064 5.709 L 109.064 9.482 A 2.704 2.704 0 0 0 108.816 9.411 Q 108.695 9.382 108.554 9.358 A 6.319 6.319 0 0 0 108.252 9.313 A 9.094 9.094 0 0 0 107.834 9.271 Q 107.627 9.255 107.443 9.252 A 5.136 5.136 0 0 0 107.36 9.251 A 3.002 3.002 0 0 0 106.497 9.372 A 2.645 2.645 0 0 0 105.97 9.593 A 2.488 2.488 0 0 0 105.003 10.543 A 2.6 2.6 0 0 0 104.688 11.466 A 3.386 3.386 0 0 0 104.652 11.968 L 104.652 19.372 Z M 129.821 19.372 L 125.479 19.372 L 125.479 5.736 L 129.696 5.736 L 129.696 8.221 L 129.838 8.221 A 5.03 5.03 0 0 1 130.167 7.34 Q 130.514 6.634 131.055 6.211 Q 131.898 5.549 133.017 5.549 A 4.949 4.949 0 0 1 133.559 5.58 A 5.468 5.468 0 0 1 133.638 5.589 A 4.083 4.083 0 0 1 134.039 5.659 A 3.429 3.429 0 0 1 134.233 5.709 L 134.233 9.482 A 2.704 2.704 0 0 0 133.985 9.411 Q 133.863 9.382 133.722 9.358 A 6.319 6.319 0 0 0 133.421 9.313 A 9.094 9.094 0 0 0 133.003 9.271 Q 132.796 9.255 132.612 9.252 A 5.136 5.136 0 0 0 132.528 9.251 A 3.002 3.002 0 0 0 131.666 9.372 A 2.645 2.645 0 0 0 131.139 9.593 A 2.488 2.488 0 0 0 130.171 10.543 A 2.6 2.6 0 0 0 129.857 11.466 A 3.386 3.386 0 0 0 129.821 11.968 L 129.821 19.372 Z M 81.561 19.372 L 77.219 19.372 L 77.219 5.736 L 81.561 5.736 L 81.561 19.372 Z M 88.565 12.554 A 6.888 6.888 0 0 0 88.622 13.463 Q 88.695 14.012 88.863 14.471 A 3.348 3.348 0 0 0 89.174 15.115 A 2.467 2.467 0 0 0 89.724 15.736 Q 90.288 16.185 91.078 16.185 A 2.369 2.369 0 0 0 91.774 16.086 A 1.971 1.971 0 0 0 92.436 15.736 A 2.458 2.458 0 0 0 93.023 15.043 A 3.375 3.375 0 0 0 93.284 14.471 Q 93.554 13.706 93.571 12.69 A 8.199 8.199 0 0 0 93.572 12.554 Q 93.572 11.453 93.284 10.645 Q 92.995 9.837 92.441 9.393 Q 91.886 8.949 91.078 8.949 A 2.44 2.44 0 0 0 90.387 9.043 A 1.993 1.993 0 0 0 89.719 9.384 A 2.419 2.419 0 0 0 89.135 10.053 A 3.344 3.344 0 0 0 88.863 10.627 A 4.532 4.532 0 0 0 88.649 11.453 Q 88.581 11.863 88.568 12.329 A 8.065 8.065 0 0 0 88.565 12.554 Z M 77.823 3.538 A 2.233 2.233 0 0 0 79.395 4.146 A 2.229 2.229 0 0 0 80.97 3.538 A 2.467 2.467 0 0 0 81.03 3.481 A 1.924 1.924 0 0 0 81.623 2.069 A 1.909 1.909 0 0 0 81.439 1.232 A 2.088 2.088 0 0 0 80.97 0.609 Q 80.318 0 79.395 0 A 2.233 2.233 0 0 0 77.823 0.609 A 2.501 2.501 0 0 0 77.763 0.666 A 1.907 1.907 0 0 0 77.166 2.069 A 1.927 1.927 0 0 0 77.342 2.891 A 2.072 2.072 0 0 0 77.823 3.538 Z M 118.528 14.525 L 118.528 13.228 A 2.092 2.092 0 0 1 118.35 13.31 Q 118.227 13.361 118.08 13.406 A 7.426 7.426 0 0 1 117.806 13.484 A 9.325 9.325 0 0 1 117.507 13.557 Q 117.196 13.628 116.868 13.681 A 44.741 44.741 0 0 1 116.39 13.756 A 39.235 39.235 0 0 1 116.238 13.779 A 4.846 4.846 0 0 0 115.745 13.882 Q 115.5 13.948 115.293 14.037 A 2.718 2.718 0 0 0 115.194 14.081 Q 114.764 14.285 114.537 14.609 A 1.254 1.254 0 0 0 114.321 15.198 A 1.607 1.607 0 0 0 114.311 15.377 A 1.494 1.494 0 0 0 114.372 15.816 A 1.126 1.126 0 0 0 114.795 16.407 Q 115.273 16.757 116.006 16.762 A 3.113 3.113 0 0 0 116.025 16.762 A 2.98 2.98 0 0 0 116.799 16.664 A 2.56 2.56 0 0 0 117.29 16.478 A 2.324 2.324 0 0 0 118.191 15.692 A 1.987 1.987 0 0 0 118.52 14.73 A 2.485 2.485 0 0 0 118.528 14.525 Z"
      vector-effect="non-scaling-stroke"/>
  </g>
</svg>
